<svg xmlns="http://www.w3.org/2000/svg" width="26" height="27" viewBox="0 0 26 27"><path fill="#fff" d="M21.66 4.71V.36h-1.83v4.35h-4.06v1.83h4.06v4.01h1.83V6.54h4.04V4.71zM15.7 2.54H8.41c-1.1 0-6.46 1.1-6.05 6.16.41 5.06 6.28 4.88 6.28 4.88-1.1 1.64.5 3.19.5 3.19-2.75-.5-7.93 1.1-8.39 4.7-.45 3.6 4.86 6.74 10.23 4.56 5.36-2.19 5.18-7.16 3.57-8.57-1.6-1.42-2.61-2.65-2.93-3.01-.32-.37-.14-1.46-.14-1.46 1.1-.87 1.74-1.87 1.74-1.87 2.8-3.42-.68-7.52-.68-7.52 2.89.22 3.16-1.06 3.16-1.06zm-5.68 15.31c.4.13.65.62.99.82 1.32.79 2.18 2.05 2.18 3.24 0 1.91-1.83 3.31-4.6 3.31-2.77 0-5.15-1.86-5.15-3.77 0-1.9 2.01-3.54 4.78-3.54.59 0 1.28-.22 1.8-.06zm1.47-7.06c-.16 1.17-1.04 1.69-3.08 1.61-1.32-.06-3.35-2.92-3.35-4.88 0-1.97.24-3.6 2.62-3.97.88-.13 2.1.52 2.82 1.63.48.74.73 1.7.89 2.47.2.95.2 2.32.1 3.14z"/></svg>