<?xml version="1.0" encoding="utf-8"?>
<!-- Generator: Adobe Illustrator 20.1.0, SVG Export Plug-In . SVG Version: 6.00 Build 0)  -->
<svg version="1.1" id="Слой_1" xmlns="http://www.w3.org/2000/svg" xmlns:xlink="http://www.w3.org/1999/xlink" x="0px" y="0px"
	 viewBox="0 0 80 24" style="enable-background:new 0 0 80 24;" xml:space="preserve">
<style type="text/css">
	.st0{opacity:0.2;clip-path:url(#SVGID_2_);enable-background:new    ;}
	.st1{clip-path:url(#SVGID_4_);}
	.st2{clip-path:url(#SVGID_6_);}
	.st3{clip-path:url(#SVGID_8_);fill:#49494a;}
</style>
<g>
	<defs>
		<rect id="SVGID_1_" x="-760" y="-2605" width="1440" height="3000"/>
	</defs>
	<clipPath id="SVGID_2_">
		<use xlink:href="#SVGID_1_"  style="overflow:visible;"/>
	</clipPath>
	<g class="st0">
		<g>
			<defs>
				<rect id="SVGID_3_" width="80" height="24"/>
			</defs>
			<clipPath id="SVGID_4_">
				<use xlink:href="#SVGID_3_"  style="overflow:visible;"/>
			</clipPath>
			<g class="st1">
				<defs>
					<path id="SVGID_5_" d="M43,16.1c-1.2,0-2.3-1.1-2.3-2.5c0-1.4,1-2.5,2.3-2.5c1.2,0,2.3,1.1,2.3,2.5C45.2,15,44.2,16.1,43,16.1z
						 M43.6,9.1c-1.4,0-2.3,0.5-2.9,1.3V9.3h-2.2v11.1h2.2v-3.6c0.6,0.7,1.4,1.3,2.6,1.3c2,0,4-1.6,4-4.4v0
						C47.5,10.7,45.5,9.1,43.6,9.1z M52.6,16.1c-1.3,0-2.4-1.1-2.4-2.5c0-1.4,1.1-2.5,2.4-2.5c1.3,0,2.4,1.1,2.4,2.5
						C55,15,54,16.1,52.6,16.1z M52.7,9.1c-2.6,0-4.6,2-4.6,4.5v0c0,2.5,2,4.4,4.6,4.4c2.6,0,4.6-2,4.6-4.5v0
						C57.2,11.1,55.3,9.1,52.7,9.1z M66.2,6.9c0,0.8-0.6,1.4-1.4,1.4c-0.8,0-1.4-0.6-1.4-1.4c0-0.8,0.6-1.4,1.4-1.4
						C65.6,5.5,66.2,6.1,66.2,6.9z M70.1,9.3V8.9c0-0.6,0.5-0.9,1.1-0.9c0.4,0,0.8,0.1,1.1,0.2V6.2c-0.5-0.1-1-0.2-1.8-0.2
						c-0.9,0-1.5,0.2-1.9,0.7c-0.5,0.4-0.7,1.1-0.7,2.1v0.5h-1.1v1.9h1v6.6h2.3v-6.6h1.8l2.7,6.5c-0.2,0.5-0.6,0.8-1,0.8
						c-0.3,0-0.8-0.2-1.1-0.4l-0.8,1.7c0.6,0.4,1.5,0.6,2.3,0.6c1.5,0,2.3-1.3,2.5-2L80,9.3l-2.3,0l-2.1,5.8l-2.3-5.8h-1.2L70.1,9.3
						z M63.7,9.3h2.2v8.5h-2.2V9.3z M58.4,15.4v-4.2h-1.1v-2h1.1V7h2.2v2.3h2.2v2h-2.2v3.9c0,0.7,0.4,0.9,1,0.9
						c0.4,0,0.9-0.1,1.2-0.3v1.9c-0.5,0.3-1.1,0.5-1.9,0.5C59.4,18,58.4,17.4,58.4,15.4z M29,16.2l1.5-1.8c1,0.8,2.1,1.4,3.3,1.4
						c1,0,1.6-0.4,1.6-1.1v0c0-0.6-0.4-1-2.3-1.4c-2.3-0.6-3.7-1.2-3.7-3.5v0c0-2,1.6-3.4,3.9-3.4c1.6,0,3,0.5,4.2,1.4l-1.3,1.9
						c-1-0.7-2-1.1-2.9-1.1c-0.9,0-1.4,0.4-1.4,1v0c0,0.7,0.5,1,2.4,1.5c2.3,0.6,3.5,1.4,3.5,3.4v0c0,2.2-1.7,3.5-4.1,3.5
						C32,18,30.3,17.4,29,16.2z M18.6,10.6c-0.5-0.3-1-0.5-1.6-0.8c-1.1-0.4-2.2-0.7-3.3-0.9c-0.8-0.1-1.6-0.2-2.4-0.3
						c-0.8,0-1.7-0.1-2.5,0C7.9,8.7,7,8.8,6,9C5.7,9.1,5.4,9.2,5,9.3c-0.2,0.1-0.4,0.1-0.6,0c-0.5-0.1-0.8-0.5-0.8-1
						c0-0.5,0.3-0.9,0.7-1C4.7,7.1,5,7,5.3,6.9C6.2,6.7,7,6.6,7.9,6.5c0.9-0.1,1.8-0.1,2.7-0.1c2.2,0.1,4.4,0.4,6.6,1.1
						c0.9,0.3,1.7,0.7,2.5,1.1c0.3,0.2,0.5,0.4,0.5,0.7c0,0.1,0,0.2,0,0.2C20.3,10.5,19.4,11,18.6,10.6z M18.5,13.9
						c-0.3,0.4-0.8,0.6-1.2,0.3c-0.3-0.1-0.5-0.3-0.8-0.4c-1.2-0.6-2.4-1-3.7-1.2c-1-0.2-2-0.3-3.1-0.3c-1.3,0-2.7,0.2-4,0.6
						c-0.2,0.1-0.4,0.1-0.7,0c-0.3-0.1-0.6-0.5-0.6-0.9c0-0.4,0.2-0.7,0.6-0.8c0.4-0.1,0.8-0.2,1.1-0.3c0.9-0.2,1.9-0.3,2.9-0.4
						c2.1-0.1,4.1,0.2,6.1,0.8c1,0.3,2,0.7,2.9,1.3c0,0,0.1,0.1,0.1,0.1C18.7,12.9,18.7,13.5,18.5,13.9z M17.1,17
						c-0.2,0.3-0.6,0.4-0.9,0.3c-0.1,0-0.1-0.1-0.2-0.1c-1.2-0.7-2.6-1.2-4-1.4c-0.9-0.1-1.7-0.2-2.6-0.1c-1.1,0-2.3,0.2-3.4,0.4
						c-0.1,0-0.2,0-0.3,0c-0.3,0-0.6-0.2-0.7-0.6c-0.1-0.3,0.1-0.7,0.4-0.8c0.1,0,0.1,0,0.2-0.1c0.9-0.2,1.8-0.4,2.8-0.4
						c0.5,0,1-0.1,1.6-0.1c1.5,0,3,0.2,4.5,0.7c0.8,0.3,1.6,0.6,2.3,1.1c0.1,0,0.1,0.1,0.2,0.1C17.2,16.3,17.2,16.7,17.1,17z
						 M11.7,0.4C5.2,0.4,0,5.6,0,12c0,6.4,5.2,11.6,11.7,11.6c6.5,0,11.7-5.2,11.7-11.6C23.4,5.6,18.2,0.4,11.7,0.4z"/>
				</defs>
				<clipPath id="SVGID_6_">
					<use xlink:href="#SVGID_5_"  style="overflow:visible;"/>
				</clipPath>
				<g class="st2">
					<defs>
						<rect id="SVGID_7_" width="80" height="24"/>
					</defs>
					<clipPath id="SVGID_8_">
						<use xlink:href="#SVGID_7_"  style="overflow:visible;"/>
					</clipPath>
					<rect x="-5" y="-4.6" class="st3" width="90" height="33.2"/>
				</g>
			</g>
		</g>
	</g>
</g>
</svg>
