<svg xmlns="http://www.w3.org/2000/svg" width="16" height="28" viewBox="0 0 16 28"><path fill="#fdc213" d="M13.93 0H2.07C.93 0 0 .92 0 2.06v23.88C0 27.08.93 28 2.07 28h11.86c1.14 0 2.07-.92 2.07-2.06V2.06C16 .92 15.07 0 13.93 0zM1 4h14v17H1zM2.07.93h11.86c.62 0 1.13.5 1.13 1.13L15 3H1l-.06-.94c0-.62.51-1.13 1.13-1.13zm11.86 26.14H2.07c-.62 0-1.13-.5-1.13-1.13L1 22h14l.06 3.94c0 .62-.51 1.13-1.13 1.13zM8 24a1 1 0 0 0 0 2 1 1 0 0 0 0-2zm0 1.5a.5.5 0 0 1-.5-.5.5.5 0 1 1 1 0 .5.5 0 0 1-.5.5z"/></svg>