<svg xmlns="http://www.w3.org/2000/svg" xmlns:xlink="http://www.w3.org/1999/xlink" version="1.1" x="0px" y="0px" viewBox="0 0 100 100" enable-background="new 0 0 100 100" xml:space="preserve"><rect fill="none" width="100" height="100"/><g><path d="M90.303,25.362L73.745,43.67L57.188,25.365c-1-1.101-2.702-1.192-3.808-0.188c-1.101,0.995-1.188,2.702-0.192,3.805   l18.558,20.512c0.515,0.567,1.24,0.889,2,0.889c0.765,0,1.49-0.322,2-0.889L94.303,28.98c1-1.104,0.914-2.81-0.192-3.808   C93.01,24.17,91.308,24.264,90.303,25.362z"/><path d="M71.745,31.071c0.515,0.567,1.24,0.887,2,0.887c0.765,0,1.49-0.32,2-0.887l18.558-20.515c1-1.101,0.914-2.808-0.192-3.803   c-1.101-1.005-2.803-0.914-3.808,0.188L73.745,25.247L57.188,6.941c-1-1.101-2.702-1.192-3.808-0.188   c-1.101,0.995-1.188,2.702-0.192,3.803L71.745,31.071z"/><path d="M46.582,52.211c-0.082,0-0.154,0.005-0.23,0.005V17.191c0-6.024-9.077-10.745-20.678-10.745   C14.082,6.446,5,11.167,5,17.191v58.338c0,6.029,9.082,10.75,20.673,10.75c0.361,0,0.702-0.026,1.058-0.036   c2.471,4.495,10.298,7.702,19.851,7.702c11.591,0,20.673-4.724,20.673-10.75V62.962C67.255,56.934,58.173,52.211,46.582,52.211z    M64.558,62.962c0,3.887-7.221,8.051-17.976,8.051c-10.754,0-17.985-4.164-17.985-8.051c0-3.892,7.231-8.056,17.985-8.056   C57.337,54.906,64.558,59.07,64.558,62.962z M64.558,68.344v5.45c0,3.89-7.221,8.053-17.976,8.053   c-10.754,0-17.985-4.163-17.985-8.053v-5.45c0.077,0.065,0.168,0.123,0.245,0.19c0.308,0.276,0.644,0.536,1,0.788   c0.14,0.102,0.279,0.202,0.428,0.303c0.428,0.284,0.885,0.563,1.366,0.82c0.072,0.036,0.134,0.079,0.207,0.115   C32.399,70.856,33,71.13,33.62,71.38c0.168,0.075,0.346,0.14,0.52,0.21c0.485,0.183,0.985,0.362,1.5,0.526   c0.202,0.06,0.399,0.13,0.61,0.188c0.649,0.189,1.313,0.367,2.005,0.521c0.063,0.017,0.11,0.031,0.164,0.041   c0.75,0.163,1.529,0.298,2.317,0.418c0.226,0.028,0.457,0.058,0.688,0.089c0.601,0.074,1.211,0.14,1.836,0.188   c0.245,0.021,0.49,0.046,0.74,0.061c0.841,0.05,1.702,0.089,2.582,0.089c0.875,0,1.731-0.039,2.577-0.089   c0.25-0.015,0.49-0.039,0.735-0.061c0.625-0.048,1.236-0.113,1.841-0.188c0.227-0.031,0.462-0.061,0.688-0.089   c0.789-0.12,1.567-0.255,2.317-0.418c0.053-0.01,0.102-0.024,0.159-0.041c0.692-0.154,1.36-0.332,2.01-0.521   c0.206-0.058,0.408-0.128,0.61-0.188c0.515-0.164,1.015-0.344,1.5-0.526c0.173-0.07,0.351-0.135,0.519-0.21   c0.621-0.25,1.222-0.523,1.779-0.819c0.077-0.036,0.135-0.079,0.207-0.115c0.485-0.262,0.938-0.536,1.365-0.82   c0.148-0.101,0.288-0.201,0.433-0.303c0.351-0.252,0.683-0.512,0.99-0.783C64.39,68.472,64.485,68.414,64.558,68.344z    M43.486,52.341c0.048-0.051,0.12-0.092,0.173-0.143v0.125C43.601,52.331,43.539,52.336,43.486,52.341z M25.673,9.139   c10.76,0,17.986,4.164,17.986,8.053c0,3.892-7.226,8.055-17.986,8.055c-10.75,0-17.976-4.163-17.976-8.055   C7.697,13.302,14.923,9.139,25.673,9.139z M7.697,22.576c0.072,0.067,0.168,0.125,0.24,0.192c0.308,0.274,0.644,0.536,1,0.791   c0.139,0.101,0.284,0.2,0.428,0.301c0.428,0.289,0.885,0.563,1.37,0.822c0.072,0.034,0.13,0.077,0.202,0.116   c0.558,0.293,1.159,0.565,1.779,0.822c0.168,0.07,0.346,0.135,0.519,0.202c0.486,0.185,0.986,0.36,1.5,0.529   c0.202,0.063,0.399,0.13,0.611,0.19c0.649,0.19,1.317,0.365,2.005,0.521c0.063,0.012,0.11,0.029,0.164,0.039   c0.75,0.164,1.529,0.298,2.317,0.416c0.226,0.031,0.457,0.058,0.688,0.089c0.606,0.077,1.216,0.144,1.841,0.192   c0.246,0.019,0.486,0.043,0.731,0.055c0.846,0.05,1.707,0.089,2.582,0.089c0.88,0,1.736-0.039,2.582-0.089   c0.25-0.012,0.49-0.036,0.74-0.055c0.62-0.048,1.231-0.116,1.836-0.192c0.231-0.031,0.462-0.058,0.688-0.089   c0.789-0.118,1.567-0.252,2.317-0.416c0.053-0.01,0.101-0.026,0.164-0.039c0.692-0.156,1.356-0.332,2.01-0.521   c0.207-0.06,0.404-0.127,0.605-0.19c0.515-0.168,1.015-0.344,1.5-0.529c0.173-0.067,0.351-0.132,0.52-0.202   c0.62-0.257,1.221-0.529,1.779-0.822c0.077-0.039,0.139-0.082,0.207-0.118c0.486-0.262,0.938-0.536,1.366-0.82   c0.149-0.101,0.288-0.2,0.433-0.303c0.355-0.252,0.683-0.514,0.99-0.783c0.082-0.067,0.173-0.125,0.25-0.197v5.452   c0,3.892-7.226,8.056-17.986,8.056c-10.75,0-17.976-4.164-17.976-8.056V22.576z M7.697,33.396   c3.524,3.238,10.173,5.382,17.976,5.382c7.808,0,14.462-2.144,17.986-5.382v4.036c0,3.89-7.226,8.053-17.986,8.053   c-10.75,0-17.976-4.164-17.976-8.053V33.396z M7.697,42.797c3.524,3.235,10.173,5.382,17.976,5.382   c7.808,0,14.462-2.147,17.986-5.382v4.034c0,3.889-7.226,8.057-17.986,8.057c-10.75,0-17.976-4.167-17.976-8.057V42.797z    M7.697,52.198c3.524,3.234,10.173,5.382,17.976,5.382c1.048,0,2.077-0.049,3.082-0.12c-1.803,1.601-2.851,3.474-2.851,5.502v1.317   c-0.077,0-0.154,0.01-0.231,0.01c-10.75,0-17.976-4.166-17.976-8.056V52.198z M7.697,61.597c3.524,3.238,10.173,5.385,17.976,5.385   c0.082,0,0.154-0.01,0.231-0.01v6.704c-0.077,0-0.149,0.012-0.231,0.012c-10.75,0-17.976-4.163-17.976-8.053V61.597z    M25.673,83.585c-10.75,0-17.976-4.164-17.976-8.056v-4.531c3.524,3.238,10.173,5.385,17.976,5.385c0.077,0,0.154-0.005,0.231-0.01   v6.822c0,0.13,0.029,0.257,0.034,0.385C25.851,83.58,25.765,83.585,25.673,83.585z M46.582,91.248   c-10.754,0-17.985-4.163-17.985-8.053v-4.034c3.529,3.241,10.178,5.383,17.985,5.383c7.803,0,14.457-2.142,17.976-5.383v4.034   C64.558,87.085,57.337,91.248,46.582,91.248z"/></g></svg>