<?xml version="1.0" encoding="utf-8"?>
<!-- Generator: Adobe Illustrator 20.1.0, SVG Export Plug-In . SVG Version: 6.00 Build 0)  -->
<svg version="1.1" id="Слой_1" xmlns="http://www.w3.org/2000/svg" xmlns:xlink="http://www.w3.org/1999/xlink" x="0px" y="0px"
	 viewBox="0 0 80 28" style="enable-background:new 0 0 80 28;" xml:space="preserve">
<style type="text/css">
	.st0{opacity:0.2;clip-path:url(#SVGID_2_);enable-background:new    ;}
	.st1{clip-path:url(#SVGID_4_);}
	.st2{clip-path:url(#SVGID_6_);}
	.st3{clip-path:url(#SVGID_8_);fill:#D5D5D5;}
</style>
<g>
	<defs>
		<rect id="SVGID_1_" x="-440" y="-2603" width="1440" height="3000"/>
	</defs>
	<clipPath id="SVGID_2_">
		<use xlink:href="#SVGID_1_"  style="overflow:visible;"/>
	</clipPath>
	<g class="st0">
		<g>
			<defs>
				<rect id="SVGID_3_" width="80" height="28"/>
			</defs>
			<clipPath id="SVGID_4_">
				<use xlink:href="#SVGID_3_"  style="overflow:visible;"/>
			</clipPath>
			<g class="st1">
				<defs>
					<path id="SVGID_5_" d="M16.6,4.9l2-2c-3.3-2.8-9-3.1-12.8-1.2c-3.3,1.7-5.7,5-5.8,8.7c-0.1,3.9,2.1,7,4.4,8.5
						c3.8,2.6,10.3,2,14.2,0l0-0.4h0v-4.1l0.9-1.1h-5.7l-2.1,1.2l4.1-0.1V18c0,0.5,0,0.6-0.8,0.9c-1.2,0.3-2.5,0.4-3.7,0.3
						c-4.1-0.3-7.3-3.6-8-7.7c-0.7-3.9,1.1-7.5,4.2-9c1.5-0.7,3.3-1.1,5.2-0.5C13.9,2.3,15,3,16,4l-0.7,1.2L16.6,4.9z M31.5,13.3
						c0.2,2.5-0.6,4.7-2.8,5.3c-2.3,0.5-4.7-1.4-5.3-4.5c-0.7-3.5,0.4-5.8,2.6-6.4C28.5,7,31.1,9.6,31.5,13.3z M27.4,6.7
						c4.3,0,6.6,2.9,6.8,6.2c0.2,3.3-2.6,6.3-6,6.7c-4.1,0.4-7.7-2.4-7.7-6.4C20.6,9.6,23.6,6.7,27.4,6.7z M46.2,13.3
						c0.2,2.5-0.6,4.7-2.8,5.3c-2.3,0.5-4.6-1.4-5.2-4.5c-0.7-3.5,0.4-5.8,2.6-6.4C43.3,7,45.8,9.6,46.2,13.3z M42.1,6.7
						c4.3,0,6.5,2.9,6.7,6.2c0.2,3.3-2.5,6.3-5.9,6.7c-4,0.4-7.6-2.4-7.6-6.4C35.4,9.6,38.4,6.7,42.1,6.7z M58.5,11.8
						c0.3,1.7-0.2,3.4-1.7,3.8c-1.6,0.4-3.4-0.8-3.9-3c-0.6-2.5,0-4,1.5-4.5C56.1,7.5,58,9.2,58.5,11.8z M62.5,7l-1.6,1h-1.8
						c0.8,0.5,1.4,1.3,1.7,2.2c0.3,0.9,0.4,1.9,0,2.9c-0.3,0.9-1,1.7-2,2.2c-0.6,0.3-0.8,0.7-0.9,1.2c-0.1,1.2,1.3,2,2.2,2.6
						c1.8,1.4,2.5,3.6,1.3,5.7c-1.1,2.1-3.9,3-6.7,3c-3.6,0-5.8-1.7-6-3.9c-0.2-2.9,2.8-4.3,5.5-4.6c0.8-0.1,1.4-0.1,2.1,0
						c-0.9-0.6-1.3-1.9-0.8-2.8c0.1-0.2,0-0.1-0.2-0.1c-2.2,0.3-4.4-1.1-5-3.3c-0.3-1.1-0.1-2.3,0.3-3.2c0.9-2,2.9-3,5.2-3
						C58.1,7,60.2,7,62.5,7z M57.1,20.1c0.3,0.2,0.5,0.4,0.8,0.6c1.6,1,2.1,2.2,1.9,3.4c-0.2,1.4-1.5,2.4-3.7,2.6
						c-2.4,0.1-5.6-0.8-5-3.9c0.3-1.7,2.5-2.5,4.4-2.6C56.1,20,56.6,20.1,57.1,20.1z M63.9,0.1h3.7c-0.5,0.3-0.7,0.5-0.9,0.8
						c-0.2,0.3-0.2,0.7-0.2,1.2c-0.2,5-0.1,10.1-0.1,15.1c0,1.4,0.6,1.2,2.3,1.2c-0.3,0.2-0.7,0.7-1,0.9c-1.6,0-3.1,0-4.7,0
						c0.6-0.6,0.9-1,0.9-2.6c0-5.2-0.2-10.3,0.1-15.3c-0.7,0-1.4,0-2.2,0C62.5,1,63.1,0.4,63.9,0.1z M79.3,10.4
						c0.4-0.2,0.5-0.2,0.3-0.6c-0.9-2.5-4.2-3.9-7.1-2.7c-2.2,0.9-3.9,3.3-3.9,6c0,3.6,2.6,6.8,6.1,6.8c1.6,0,2.7-0.2,3.8-0.9
						c0.2-0.2,1.4-1.2,1.5-1.4c0,0-0.2,0.1-0.4,0.3c-0.8,0.4-2,0.6-2.9,0.6c-1.9,0-3.4-1.3-4.4-2.8c-0.6-1-1-2.1-1.1-3.3
						c-0.2-1.9,0.3-4,2.4-4.5c1.4-0.3,2.7,0.4,3.2,1.8c0.2,0.6,0.1,0.9-0.5,1.2l-5,2.1l1.7,0.1C75,12.1,77.3,11.3,79.3,10.4z"/>
				</defs>
				<use xlink:href="#SVGID_5_"  style="overflow:visible;fill-rule:evenodd;clip-rule:evenodd;fill:#D5D5D5;"/>
				<clipPath id="SVGID_6_">
					<use xlink:href="#SVGID_5_"  style="overflow:visible;"/>
				</clipPath>
				<g class="st2">
					<defs>
						<rect id="SVGID_7_" width="80" height="28"/>
					</defs>
					<use xlink:href="#SVGID_7_"  style="overflow:visible;fill:#D5D5D5;"/>
					<clipPath id="SVGID_8_">
						<use xlink:href="#SVGID_7_"  style="overflow:visible;"/>
					</clipPath>
					<rect x="-5" y="-4.9" class="st3" width="90" height="37.8"/>
				</g>
			</g>
		</g>
	</g>
</g>
</svg>
