<?xml version="1.0" encoding="utf-8"?>
<!-- Generator: Adobe Illustrator 20.1.0, SVG Export Plug-In . SVG Version: 6.00 Build 0)  -->
<svg version="1.1" id="Слой_1" xmlns="http://www.w3.org/2000/svg" xmlns:xlink="http://www.w3.org/1999/xlink" x="0px" y="0px"
	 viewBox="0 0 80 24" style="enable-background:new 0 0 80 24;" xml:space="preserve">
<style type="text/css">
	.st0{opacity:0.2;clip-path:url(#SVGID_2_);enable-background:new    ;}
	.st1{clip-path:url(#SVGID_4_);}
	.st2{clip-path:url(#SVGID_6_);}
	.st3{clip-path:url(#SVGID_8_);fill:#49494a;}
</style>
<g>
	<defs>
		<rect id="SVGID_1_" x="-920" y="-2605" width="1440" height="3000"/>
	</defs>
	<clipPath id="SVGID_2_">
		<use xlink:href="#SVGID_1_"  style="overflow:visible;"/>
	</clipPath>
	<g class="st0">
		<g>
			<defs>
				<rect id="SVGID_3_" width="80" height="24"/>
			</defs>
			<clipPath id="SVGID_4_">
				<use xlink:href="#SVGID_3_"  style="overflow:visible;"/>
			</clipPath>
			<g class="st1">
				<defs>
					<path id="SVGID_5_" d="M10,15.5l-1.7-4.9l4.9-1.7l1.7,4.9L10,15.5z M23.2,12.9c-0.3-1-1.4-1.5-2.4-1.2l-2.3,0.8l-1.7-4.9
						l2.3-0.8c1-0.3,1.5-1.4,1.2-2.4c-0.3-1-1.4-1.5-2.4-1.2l-2.3,0.8l-0.8-2.3c-0.3-1-1.4-1.5-2.4-1.2C11.4,1,10.9,2,11.2,3L12,5.3
						L7.1,7L6.3,4.7c-0.3-1-1.4-1.5-2.4-1.2C2.9,3.9,2.4,5,2.8,5.9l0.8,2.3L1.3,9c-1,0.3-1.5,1.4-1.2,2.4c0.3,1,1.4,1.5,2.4,1.2
						l2.3-0.8l1.7,4.9l-2.3,0.8c-1,0.3-1.5,1.4-1.2,2.4c0.3,1,1.4,1.5,2.4,1.2l2.3-0.8l0.8,2.3c0.3,1,1.4,1.5,2.4,1.2
						c1-0.3,1.5-1.4,1.2-2.4L11.2,19l4.9-1.7l0.8,2.3c0.3,1,1.4,1.5,2.4,1.2c1-0.3,1.5-1.4,1.2-2.4l-0.8-2.3l2.3-0.8
						C23,14.9,23.5,13.9,23.2,12.9z M39.8,18.8c0.2,0,1.6,0,2.3,0c0.2,0,0.3-0.2,0.3-0.3c0.1-2.8,0.1-15.9,0-17.9
						c0-0.2-0.1-0.2-0.2-0.3c-0.6-0.1-2.1-0.1-2.6,0.1c-0.1,0-0.2,0.1-0.2,0.2c-0.1,5.3,0,17.6,0,17.9
						C39.4,18.7,39.5,18.8,39.8,18.8z M76.8,18.8c0.2,0,2.4-0.3,3-0.5c0.2,0,0.2-0.2,0.1-0.3c-0.4-0.6-1.4-2.1-2.4-3.6
						c-0.9-1.3-1.9-2.5-2.3-2.9c-0.1-0.1-0.1-0.2,0-0.3c0.6-0.6,3.2-3.1,4.1-4.1c0.4-0.4,0.1-0.6-0.2-0.7c-0.6-0.2-1.6-0.4-2.2-0.5
						c-0.2-0.1-0.5,0-0.7,0.2c-1,0.9-3.9,3.8-4.8,4.7c-0.2,0.2-0.2,0.1-0.3-0.1c0-1.7,0-9-0.1-10.2c0-0.2-0.2-0.3-0.3-0.3
						c-0.6,0-1.9,0-2.5,0c-0.2,0-0.3,0.2-0.3,0.3c-0.1,1.9,0.1,15.9,0.1,17.9c0,0.1,0.1,0.3,0.2,0.3c0.5,0,1.9,0,2.5,0
						c0.3,0,0.3-0.2,0.3-0.2l0-3.8c0,0,0-0.2,0.1-0.2c0.2-0.2,0.8-0.9,1.1-1.2c0.1-0.1,0.2-0.1,0.2,0c0.3,0.4,1.2,1.8,2,3
						c0.8,1.1,1.5,2.1,1.5,2.2C76.5,18.8,76.7,18.8,76.8,18.8z M56,12.4c0-3.5,2.4-6.5,6.4-6.5c2.5,0,4.3,1.1,4.6,1.6
						c0.1,0.1,0,0.2,0,0.4c-0.2,0.4-0.7,1.3-1.1,1.8c-0.2,0.2-0.3,0-0.5-0.1c-0.6-0.4-1.6-0.8-2.7-0.8c-1.9,0-3.4,1.3-3.3,3.7
						c0,2.3,1.4,3.6,3.3,3.7c1,0,2-0.6,2.6-1c0.2-0.1,0.3-0.1,0.5,0.1c0.4,0.4,0.9,1,1.2,1.4c0.2,0.2,0,0.4,0,0.5
						c-0.8,1-2.4,1.9-4.5,1.9C58.2,19,56.1,15.9,56,12.4z M44.5,7.7c0.8-0.7,2.4-1.9,5-1.8c3.4,0.1,5.2,1.7,5.4,5.5
						c0.1,1.6,0,6-0.1,7.1c0,0.2-0.1,0.3-0.3,0.3c-0.6,0-1.9,0-2.5,0c-0.3,0-0.3-0.2-0.3-0.3c0-0.1,0-0.4,0-0.7
						c0-0.1-0.1-0.1-0.2-0.1c-0.8,0.9-2.1,1.3-3.5,1.3c-2.1,0-4.2-1.2-4.2-3.7c0-2.5,1.8-3.8,3.8-4.1c1.3-0.2,2.7,0,3.8,0.4
						c0.1,0,0.2,0,0.2-0.1c0-0.3,0-0.9-0.1-1.2c-0.2-0.7-0.8-1.3-2.1-1.5c-0.3,0-0.5,0-0.8,0c-1,0.1-2.3,0.9-2.8,1.2
						c-0.1,0.1-0.3,0-0.4-0.1c-0.3-0.4-1.1-1.5-1.1-1.7C44.3,7.9,44.4,7.8,44.5,7.7z M50.3,13.2c-1.8,0-3.4,0.5-3.4,1.9
						c0,1.1,0.9,1.6,2.1,1.6c1.2-0.1,2.1-0.6,2.5-1.3c0.1-0.3,0.2-1.2,0.2-1.6c0-0.1-0.2-0.2-0.2-0.3C51.1,13.3,50.8,13.2,50.3,13.2
						z M27.7,9.8c0-2.4,1.8-4.1,5-4.1c2,0,3.5,0.6,4.4,1.2c0.1,0.1,0.3,0.3,0.2,0.7c-0.2,0.4-0.5,1.1-0.7,1.5
						c-0.1,0.2-0.5,0.2-0.6,0.1c-0.6-0.3-1.6-0.8-2.6-0.9c-0.2,0-0.5,0-0.7,0c-0.8,0-1.5,0.3-1.7,0.9c0,0.1-0.1,0.2-0.1,0.4
						c0,0.8,1.1,1.1,2.5,1.4c2.6,0.4,4.5,1.2,4.5,3.8c0,2.2-1.8,4.3-5.3,4.2c-2.3,0-4-0.8-4.8-1.6c0,0-0.4-0.4-0.2-0.8
						c0.2-0.5,0.6-1.1,0.8-1.5c0.2-0.2,0.5-0.2,0.8-0.1c0.7,0.4,1.9,1.2,3.3,1.2c0.1,0,0.2,0,0.3,0c1.2,0,2-0.5,2-1.3
						c0-0.7-1-1.1-2.6-1.4C29.7,13.1,27.7,12.3,27.7,9.8z"/>
				</defs>
				<clipPath id="SVGID_6_">
					<use xlink:href="#SVGID_5_"  style="overflow:visible;"/>
				</clipPath>
				<g class="st2">
					<defs>
						<rect id="SVGID_7_" width="80" height="24"/>
					</defs>
					<clipPath id="SVGID_8_">
						<use xlink:href="#SVGID_7_"  style="overflow:visible;"/>
					</clipPath>
					<rect x="-5" y="-4.8" class="st3" width="90" height="33.5"/>
				</g>
			</g>
		</g>
	</g>
</g>
</svg>
