<?xml version="1.0" encoding="utf-8"?>
<!-- Generator: Adobe Illustrator 20.1.0, SVG Export Plug-In . SVG Version: 6.00 Build 0)  -->
<svg version="1.1" id="Слой_1" xmlns="http://www.w3.org/2000/svg" xmlns:xlink="http://www.w3.org/1999/xlink" x="0px" y="0px"
	 viewBox="0 0 70 26" style="enable-background:new 0 0 70 26;" xml:space="preserve">
<style type="text/css">
	.st0{opacity:0.2;clip-path:url(#SVGID_2_);enable-background:new    ;}
	.st1{clip-path:url(#SVGID_4_);}
	.st2{clip-path:url(#SVGID_6_);}
	.st3{clip-path:url(#SVGID_8_);fill:#49494a;}
</style>
<g>
	<defs>
		<rect id="SVGID_1_" x="-1085" y="-2604" width="1440" height="3000"/>
	</defs>
	<clipPath id="SVGID_2_">
		<use xlink:href="#SVGID_1_"  style="overflow:visible;"/>
	</clipPath>
	<g class="st0">
		<g>
			<defs>
				<rect id="SVGID_3_" width="70" height="26"/>
			</defs>
			<clipPath id="SVGID_4_">
				<use xlink:href="#SVGID_3_"  style="overflow:visible;"/>
			</clipPath>
			<g class="st1">
				<defs>
					<path id="SVGID_5_" d="M8.9,1.4C4.4,6.7,0,13.4,0,18.4c0,1.9,0.6,3.5,2,4.8c2,1.8,4.3,2.4,6.5,2.4c3.3,0,6.5-1.3,9.1-2.4
						c4.3-1.7,51.6-22.6,51.6-22.6c0.5-0.2,0.4-0.5-0.2-0.4c-0.2,0.1-51.5,14.2-51.5,14.2c-1,0.3-2,0.4-3,0.4
						c-3.9,0-7.4-2.2-7.4-6.9C7.1,6.2,7.6,4,8.9,1.4"/>
				</defs>
				<clipPath id="SVGID_6_">
					<use xlink:href="#SVGID_5_"  style="overflow:visible;"/>
				</clipPath>
				<g class="st2">
					<defs>
						<rect id="SVGID_7_" width="70" height="26"/>
					</defs>
					<clipPath id="SVGID_8_">
						<use xlink:href="#SVGID_7_"  style="overflow:visible;"/>
					</clipPath>
					<rect x="-5" y="-4.8" class="st3" width="79.5" height="35.4"/>
				</g>
			</g>
		</g>
	</g>
</g>
</svg>
