<?xml version="1.0" encoding="utf-8"?>
<!-- Generator: Adobe Illustrator 20.1.0, SVG Export Plug-In . SVG Version: 6.00 Build 0)  -->
<svg version="1.1" id="Слой_1" xmlns="http://www.w3.org/2000/svg" xmlns:xlink="http://www.w3.org/1999/xlink" x="0px" y="0px"
	 viewBox="0 0 16 28" style="enable-background:new 0 0 16 28;" xml:space="preserve">
<style type="text/css">
	.st0{fill:#FDC213;}
</style>
<path class="st0" d="M13.9,0H2.1C0.9,0,0,0.9,0,2.1v23.9C0,27.1,0.9,28,2.1,28h11.9c1.1,0,2.1-0.9,2.1-2.1V2.1C16,0.9,15.1,0,13.9,0
	z M1.5,4.6h13v15.8h-13V4.6z M2.6,1.1h10.8c0.6,0,1,0.5,1,1.2l-0.1,1H1.7l-0.1-1C1.6,1.7,2.1,1.1,2.6,1.1z M13.5,26.5H2.5
	c-0.6,0-1-0.4-1-1L1.5,22h12.9l0.1,3.5C14.5,26,14,26.5,13.5,26.5z M8,24c-0.6,0-1,0.4-1,1s0.4,1,1,1s1-0.4,1-1S8.6,24,8,24z
	 M8,25.5c-0.3,0-0.5-0.2-0.5-0.5s0.2-0.5,0.5-0.5c0.3,0,0.5,0.2,0.5,0.5S8.3,25.5,8,25.5z"/>
</svg>
