<svg xmlns="http://www.w3.org/2000/svg" width="31" height="23" viewBox="0 0 31 23"><path fill="#fff" d="M.9 17.01s5.76 5.25 11.12 5.24c4.37-.01 10.77-1.21 14.42-7.21 1.44-2.36 1.63-3.07 1.63-3.07l2.06-.16-.1-.62-1.37-.68 1.94-.84-2.35-.62s-2.12-5.72-5.5-5.57c-2.03.1-.78-.93-.78-.93l1.5-.34S22.04.81 21.72.84c-.3.03-5.8 3.67-6.31 7.21-.03.22-8.16-4.27-10.44-4.72-.16-.03.65 3.05 1.94 3.7a6.8 6.8 0 0 1-1.19.09s.64 2.69 2.75 3.39c.1.03-1.47.62-1.47.62s.28 2.27 3.38 2.27c.12 0-.56.96-.53 1.77.03.8 2.15.28 1.47 1.18-.7.9-8.05 2.64-10.43.66z"/></svg>