<?xml version="1.0" encoding="utf-8"?>
<!-- Generator: Adobe Illustrator 17.0.1, SVG Export Plug-In . SVG Version: 6.00 Build 0)  -->
<!DOCTYPE svg PUBLIC "-//W3C//DTD SVG 1.1//EN" "http://www.w3.org/Graphics/SVG/1.1/DTD/svg11.dtd">
<svg version="1.1" id="Layer_1" xmlns="http://www.w3.org/2000/svg" xmlns:xlink="http://www.w3.org/1999/xlink" x="0px" y="0px"
	 width="1146.461px" height="377.422px" viewBox="0 0 1146.461 377.422" enable-background="new 0 0 1146.461 377.422"
	 xml:space="preserve">
<g>
	<g>
		<g>
			<g>
				<polygon fill="none" points="323.557,43.924 341.662,24.462 330.173,5.058 323.499,43.987 				"/>
			</g>
			<g>
				<polygon fill="none" points="353.739,2.399 331.775,2.399 343.301,21.902 				"/>
			</g>
			<g>
				<polygon fill="none" points="361.818,43.933 361.818,43.929 361.979,44.103 355.543,4.946 345.002,24.467 				"/>
			</g>
			<g>
				<polygon fill="none" points="362.768,48.879 362.648,49.053 362.648,49.049 345.784,68.425 369.208,88.031 				"/>
			</g>
			<g>
				<polygon fill="none" points="263.333,95.966 286.762,120.449 310.191,95.966 				"/>
			</g>
			<g>
				<polygon fill="none" points="245.365,108.066 256.951,95.966 245.365,95.966 				"/>
			</g>
			<g>
				<polygon fill="none" points="245.365,112.676 245.365,121.441 283.301,121.441 260.138,97.24 				"/>
			</g>
			<g>
				<polygon fill="none" points="343.359,27.027 325.259,46.489 343.307,65.865 360.174,46.489 				"/>
			</g>
			<g>
				<polygon fill="none" points="316.532,191.88 316.602,191.786 316.606,191.79 340.455,161.547 316.532,131.205 				"/>
			</g>
			<g>
				<polygon fill="none" points="366.93,195.791 343.302,165.547 319.495,195.791 343.302,226.041 				"/>
			</g>
			<g>
				<polygon fill="none" points="319.3,127.051 343.302,157.555 367.121,127.051 				"/>
			</g>
			<g>
				<polygon fill="none" points="550.193,92.978 356.896,2.029 374.171,92.978 				"/>
			</g>
			<g>
				<polygon fill="none" points="322.827,49.058 322.785,48.987 317.25,87.928 340.88,68.425 322.827,49.053 				"/>
			</g>
			<g>
				<polygon fill="none" points="343.302,120.437 367.125,95.966 316.577,95.966 				"/>
			</g>
			<g>
				<polygon fill="none" points="313.386,97.24 290.223,121.441 339.815,121.425 				"/>
			</g>
			<g>
				<polygon fill="none" points="366.772,90.588 343.302,70.986 319.598,90.588 				"/>
			</g>
			<g>
				<polygon fill="none" points="245.365,92.982 312.378,92.982 328.675,2.635 232.194,86.874 245.361,86.874 245.361,86.878 
					245.365,86.878 				"/>
			</g>
			<g>
				<polygon fill="none" points="506.903,121.441 553.222,121.441 530.063,97.24 				"/>
			</g>
			<g>
				<polygon fill="none" points="453.654,121.441 499.977,121.441 476.818,97.24 				"/>
			</g>
			<g>
				<polygon fill="none" points="480.013,95.966 503.442,120.453 526.871,95.966 				"/>
			</g>
			<g>
				<polygon fill="none" points="400.41,121.441 446.728,121.441 423.565,97.24 				"/>
			</g>
			<g>
				<polygon fill="none" points="426.76,95.966 450.193,120.449 473.623,95.966 				"/>
			</g>
			<g>
				<polygon fill="none" points="567.413,95.893 533.258,95.966 557.386,121.44 591.849,121.44 				"/>
			</g>
			<g>
				<path fill="none" d="M568.856,253.337c1.108-3.477,4.324-6,8.167-6c3.843,0,7.059,2.531,8.162,6.009V124.428h-16.329V253.337z"
					/>
			</g>
			<g>
				<polygon fill="none" points="343.302,234.022 320.046,263.594 343.302,292.724 366.499,263.575 				"/>
			</g>
			<g>
				<polygon fill="none" points="316.606,199.783 316.528,199.679 316.528,260.38 340.459,230.021 				"/>
			</g>
			<g>
				<polygon fill="none" points="369.81,199.778 346.223,230.021 370.013,260.542 370.013,199.509 369.818,199.783 				"/>
			</g>
			<g>
				<polygon fill="none" points="373.516,95.966 396.945,120.449 420.378,95.966 				"/>
			</g>
			<g>
				<polygon fill="none" points="346.741,121.425 393.476,121.441 370.32,97.24 				"/>
			</g>
			<g>
				<polygon fill="none" points="369.818,191.794 369.818,191.79 370.017,192.056 370.017,131.031 346.227,161.552 				"/>
			</g>
			<g>
				<path fill="#221F1F" d="M568.49,92.978h-14.45L356.514,0h-3.494h-22.129h-1.776l-99.39,86.878v37.551h15.64h67.017v175.42h0.73
					h3.419h53.49h3.295h0.859v-175.42h193.8v130.378v1.133v0.784v0.004l8.416,9.021c-0.091,1.058,0.674,2.179-0.559,2.179
					c-2.722,0-4.573,2.332-4.573,5.204c0,2.867,2.328,5.195,5.195,5.195c2.037,0,3.793-1.166,4.652-2.876l-0.946-0.535
					c-0.664,1.378-2.075,2.328-3.706,2.328c-2.274,0-4.108-1.838-4.108-4.108c0-2.27,1.859-3.789,4.108-4.108
					c2.1-0.307,1.435-2.187,1.497-3.573l8.125-8.723v-0.008v-0.784v-1.133V124.428h12.266L568.49,92.978z M550.193,92.978H374.171
					L356.896,2.029L550.193,92.978z M343.302,165.547l23.628,30.243l-23.628,30.251l-23.807-30.251L343.302,165.547z
					 M316.606,191.79l-0.004-0.004l-0.071,0.094v-60.675l23.923,30.343L316.606,191.79z M319.3,127.051h47.821l-23.819,30.505
					L319.3,127.051z M325.259,46.489l18.1-19.462l16.815,19.462l-16.867,19.376L325.259,46.489z M366.772,90.588h-47.174
					l23.703-19.602L366.772,90.588z M340.88,68.425l-23.63,19.503l5.536-38.941l0.042,0.071v-0.004L340.88,68.425z M367.125,95.966
					l-23.823,24.471l-26.724-24.471H367.125z M345.784,68.425l16.863-19.376v0.004l0.12-0.174l6.44,39.152L345.784,68.425z
					 M361.979,44.103l-0.162-0.174v0.004l-16.815-19.466l10.541-19.52L361.979,44.103z M353.739,2.399l-10.438,19.504L331.775,2.399
					H353.739z M330.173,5.058l11.489,19.404l-18.105,19.462l-0.058,0.062L330.173,5.058z M245.361,86.878v-0.004h-13.167
					l96.482-84.239l-16.297,90.347h-67.013v-6.104H245.361z M256.951,95.966l-11.586,12.1v-12.1H256.951z M245.365,121.441v-8.764
					l14.773-15.437l23.164,24.201H245.365z M263.333,95.966h46.858l-23.429,24.483L263.333,95.966z M290.223,121.441l23.164-24.201
					l26.429,24.185L290.223,121.441z M316.528,199.679l0.079,0.104l23.853,30.239l-23.932,30.359V199.679z M316.531,294.865v-28.262
					l22.292,28.185L316.531,294.865z M320.046,263.594l23.255-29.571l23.198,29.552l-23.198,29.149L320.046,263.594z
					 M370.004,294.869l-22.709-0.081l22.709-28.23V294.869z M370.013,260.542l-23.79-30.521l23.587-30.243l0.008,0.004l0.195-0.274
					V260.542z M370.017,192.056l-0.199-0.266v0.004l-23.591-30.243l23.79-30.521V192.056z M346.741,121.425L370.32,97.24
					l23.155,24.201L346.741,121.425z M373.516,95.966h46.862l-23.433,24.483L373.516,95.966z M400.41,121.441l23.155-24.201
					l23.164,24.201H400.41z M426.76,95.966h46.862l-23.429,24.483L426.76,95.966z M453.654,121.441l23.164-24.201l23.159,24.201
					H453.654z M480.013,95.966h46.858l-23.429,24.487L480.013,95.966z M506.903,121.441l23.159-24.201l23.159,24.201H506.903z
					 M585.185,253.346c-1.104-3.477-4.32-6.009-8.162-6.009c-3.843,0-7.059,2.523-8.167,6V124.428h16.329V253.346z M557.386,121.44
					l-24.128-25.474l34.155-0.072l24.437,25.547H557.386z"/>
			</g>
		</g>
		<g>
			<rect x="229.725" y="86.877" fill="#FCC112" width="15.64" height="37.552"/>
		</g>
	</g>
</g>
<g>
	<g>
		<path fill="#231F20" d="M0,376.039v-81.807h35.85c9.128,0,16.477,2.244,22.049,6.732c5.572,4.488,8.358,10.668,8.358,18.541
			c0,4.184-0.856,7.949-2.567,11.296c-1.711,3.347-4.042,6.076-6.988,8.186c-2.948,2.111-6.324,3.728-10.126,4.85
			c-3.803,1.122-7.873,1.683-12.208,1.683H6.047v30.521H0z M6.047,339.928h28.662c7.644,0,13.796-1.844,18.455-5.534
			c4.658-3.689,6.988-8.614,6.988-14.775c0-6.313-2.244-11.181-6.732-14.604c-4.488-3.423-10.497-5.134-18.027-5.134H6.047V339.928z
			"/>
	</g>
	<g>
		<path fill="#231F20" d="M84.935,335.093c0-5.552,0.998-10.886,2.995-16.002c1.996-5.114,4.753-9.612,8.271-13.492
			c3.518-3.879,7.882-6.979,13.093-9.299c5.21-2.32,10.82-3.48,16.829-3.48c6.047,0,11.657,1.151,16.829,3.451
			c5.172,2.302,9.508,5.383,13.007,9.242c3.499,3.861,6.237,8.349,8.215,13.463c1.977,5.116,2.966,10.488,2.966,16.116
			c0,5.553-0.999,10.887-2.995,16.002c-1.997,5.116-4.764,9.622-8.301,13.52c-3.537,3.899-7.911,7.008-13.121,9.328
			c-5.211,2.319-10.82,3.48-16.829,3.48c-6.047,0-11.657-1.151-16.829-3.452c-5.173-2.3-9.498-5.391-12.979-9.27
			c-3.479-3.879-6.209-8.376-8.186-13.492C85.923,346.094,84.935,340.722,84.935,335.093z M91.21,335.093
			c0,6.694,1.492,12.846,4.479,18.455c2.985,5.611,7.159,10.069,12.522,13.378c5.363,3.309,11.333,4.963,17.913,4.963
			c6.579,0,12.541-1.644,17.884-4.934c5.344-3.289,9.489-7.73,12.436-13.321c2.948-5.591,4.422-11.771,4.422-18.541
			c0-4.982-0.885-9.736-2.652-14.262c-1.769-4.526-4.184-8.433-7.246-11.723c-3.062-3.289-6.769-5.914-11.124-7.873
			c-4.356-1.958-9.005-2.938-13.949-2.938c-6.58,0-12.532,1.646-17.856,4.934c-5.325,3.291-9.461,7.73-12.408,13.321
			C92.683,322.143,91.21,328.323,91.21,335.093z"/>
	</g>
	<g>
		<path fill="#231F20" d="M177.352,294.189h6.789l25.729,72.793l23.96-73.022h4.678l23.903,73.022l25.729-72.793h6.275
			l-29.665,82.377h-4.906l-23.96-71.025l-23.903,71.025h-4.906L177.352,294.189z"/>
	</g>
	<g>
		<path fill="#231F20" d="M312.385,375.996v-81.807h61.807v5.648h-55.76v32.118h50.511v5.591h-50.511v32.86h56.33v5.591H312.385z"/>
	</g>
	<g>
		<path fill="#231F20" d="M390.655,375.996v-81.807h34.343c4.906,0,9.346,0.723,13.321,2.168c3.973,1.446,7.216,3.423,9.726,5.933
			c4.107,4.107,6.161,9.242,6.161,15.403c0,6.618-2.187,11.923-6.561,15.916c-4.374,3.993-10.174,6.485-17.4,7.473l26.984,34.913
			h-7.701l-26.071-33.887h-26.756v33.887H390.655z M396.702,336.633h27.611c7.036,0,12.769-1.683,17.2-5.048
			c4.43-3.367,6.646-7.996,6.646-13.892c0-5.552-2.073-9.916-6.218-13.093c-4.146-3.175-9.908-4.763-17.286-4.763h-27.954V336.633z"
			/>
	</g>
	<g>
		<path fill="#231F20" d="M468.127,299.837v-5.648h63.095v5.648h-28.524v76.159h-6.104v-76.159H468.127z"/>
	</g>
	<g>
		<path fill="#231F20" d="M555.606,359.442l-13.745-80.644l57.362-9.777l0.949,5.567l-51.401,8.761l5.396,31.661l46.227-7.879
			l0.939,5.511l-46.227,7.879l5.521,32.393l51.963-8.857l0.939,5.511L555.606,359.442z"/>
	</g>
	<g>
		<path fill="#231F20" d="M624.324,335.093c0-7.644,1.74-14.69,5.22-21.137c3.479-6.446,8.366-11.58,14.661-15.403
			c6.294-3.822,13.283-5.733,20.966-5.733c3.537,0,6.807,0.323,9.812,0.97c3.004,0.647,5.781,1.617,8.329,2.909
			c2.548,1.293,4.82,2.673,6.818,4.136c1.996,1.465,4.154,3.262,6.475,5.391l-3.936,4.107c-3.956-3.841-8.12-6.808-12.494-8.9
			c-4.374-2.091-9.413-3.138-15.118-3.138c-4.83,0-9.375,0.951-13.634,2.852c-4.26,1.902-7.911,4.478-10.953,7.73
			c-3.043,3.251-5.448,7.15-7.217,11.694c-1.768,4.546-2.652,9.385-2.652,14.519c0,5.097,0.893,9.918,2.681,14.461
			c1.787,4.546,4.211,8.453,7.273,11.724c3.061,3.271,6.732,5.857,11.011,7.759c4.278,1.902,8.814,2.852,13.606,2.852
			c5.667,0,10.687-1.046,15.061-3.138c4.373-2.091,8.747-5.286,13.121-9.584l4.107,3.993c-4.754,4.678-9.661,8.225-14.718,10.64
			c-5.058,2.414-10.992,3.622-17.799,3.622c-7.644,0-14.586-1.872-20.823-5.62c-6.238-3.745-11.096-8.842-14.575-15.289
			C626.064,350.068,624.324,342.928,624.324,335.093z"/>
	</g>
	<g>
		<path fill="#231F20" d="M714.118,375.996v-81.807h6.047v37.88h52.37v-37.88h6.047v81.807h-6.047V337.66h-52.37v38.336H714.118z"/>
	</g>
</g>
<g>
	<g>
		<rect x="837.081" y="294.189" fill="#FCC112" width="309.38" height="81.807"/>
	</g>
	<g>
		<path fill="#231F20" d="M852.184,335.197c0-3.622,0.637-7.108,1.912-10.456c1.274-3.348,3.041-6.302,5.303-8.863
			c2.261-2.561,5.072-4.61,8.433-6.146c3.36-1.536,6.99-2.305,10.887-2.305c4.173,0,7.777,0.581,10.813,1.742
			c3.036,1.162,5.978,2.93,8.826,5.304l-2.586,2.998c-2.398-2.073-4.935-3.666-7.608-4.778c-2.674-1.112-5.897-1.668-9.67-1.668
			c-4.248,0-8.077,1.1-11.487,3.298c-3.411,2.199-6.047,5.141-7.908,8.826c-1.862,3.685-2.792,7.701-2.792,12.049
			c0,3.473,0.531,6.69,1.593,9.651c1.062,2.961,2.567,5.523,4.516,7.684c1.949,2.161,4.372,3.854,7.271,5.078
			c2.898,1.225,6.109,1.836,9.632,1.836c3.248,0,6.396-0.575,9.444-1.724c3.048-1.149,5.609-2.611,7.683-4.385v-15.441h-17.952
			v-3.672h21.812v20.725c-2.648,2.349-5.809,4.279-9.482,5.79s-7.558,2.268-11.656,2.268c-4.148,0-7.933-0.731-11.356-2.193
			c-3.423-1.462-6.265-3.454-8.526-5.978c-2.261-2.524-4.01-5.472-5.246-8.845C852.802,342.619,852.184,339.02,852.184,335.197z"/>
		<path fill="#231F20" d="M914.698,362.07v-53.744h22.561c3.223,0,6.141,0.475,8.751,1.424c2.611,0.95,4.741,2.249,6.39,3.898
			c2.698,2.698,4.048,6.071,4.048,10.119c0,4.348-1.437,7.833-4.31,10.456c-2.874,2.623-6.684,4.26-11.431,4.909l17.727,22.937
			h-5.059l-17.128-22.262H918.67v22.262H914.698z M918.67,336.21h18.139c4.622,0,8.389-1.106,11.3-3.317s4.366-5.253,4.366-9.126
			c0-3.648-1.362-6.515-4.085-8.601c-2.723-2.086-6.509-3.13-11.356-3.13H918.67V336.21z"/>
		<path fill="#231F20" d="M967.804,335.197c0-3.647,0.656-7.151,1.968-10.512c1.312-3.36,3.123-6.315,5.434-8.863
			c2.311-2.549,5.178-4.585,8.601-6.109c3.422-1.524,7.108-2.286,11.056-2.286c3.973,0,7.658,0.756,11.056,2.267
			c3.398,1.512,6.246,3.536,8.545,6.071c2.298,2.537,4.097,5.485,5.397,8.845c1.299,3.361,1.949,6.89,1.949,10.588
			c0,3.649-0.656,7.153-1.967,10.513c-1.312,3.36-3.13,6.321-5.453,8.882c-2.324,2.562-5.197,4.604-8.62,6.128
			c-3.424,1.524-7.109,2.286-11.056,2.286c-3.973,0-7.658-0.756-11.056-2.268s-6.24-3.542-8.526-6.09
			c-2.286-2.549-4.079-5.503-5.378-8.864C968.454,342.425,967.804,338.895,967.804,335.197z M971.927,335.197
			c0,4.398,0.981,8.439,2.942,12.124c1.961,3.686,4.703,6.615,8.226,8.789c3.523,2.174,7.445,3.261,11.768,3.261
			c4.323,0,8.239-1.081,11.75-3.242c3.51-2.161,6.234-5.078,8.17-8.751c1.936-3.673,2.905-7.733,2.905-12.181
			c0-3.273-0.581-6.396-1.743-9.369c-1.162-2.973-2.749-5.54-4.76-7.702c-2.012-2.161-4.448-3.885-7.308-5.172
			c-2.861-1.287-5.916-1.93-9.163-1.93c-4.323,0-8.233,1.081-11.731,3.242c-3.498,2.162-6.215,5.078-8.151,8.751
			C972.895,326.69,971.927,330.751,971.927,335.197z"/>
		<path fill="#231F20" d="M1034.516,339.732v-31.406h4.01v31.032c0,6.296,1.605,11.194,4.816,14.691
			c3.21,3.499,7.664,5.247,13.361,5.247c5.572,0,9.951-1.674,13.136-5.022c3.186-3.348,4.778-8.195,4.778-14.542v-31.406h3.973
			v30.957c0,7.546-1.999,13.374-5.997,17.484c-3.998,4.11-9.345,6.165-16.04,6.165c-3.223,0-6.184-0.512-8.882-1.536
			s-5.022-2.498-6.971-4.423c-1.949-1.924-3.467-4.353-4.553-7.289C1035.059,346.747,1034.516,343.43,1034.516,339.732z"/>
		<path fill="#231F20" d="M1093.693,362.07v-53.744h19.489c5.997,0,10.825,1.474,14.485,4.422c3.66,2.949,5.49,7.008,5.49,12.181
			c0,2.748-0.562,5.222-1.687,7.421c-1.124,2.199-2.655,3.991-4.591,5.378c-1.937,1.387-4.154,2.449-6.652,3.186
			c-2.499,0.737-5.172,1.105-8.021,1.105h-14.542v20.051H1093.693z M1097.666,338.346h14.766c5.022,0,9.064-1.211,12.124-3.635
			c3.06-2.423,4.591-5.659,4.591-9.707c0-4.147-1.474-7.345-4.423-9.595c-2.948-2.249-6.896-3.373-11.843-3.373h-15.216V338.346z"/>
	</g>
</g>
</svg>
